<svg width="1200" height="700" viewBox="0 0 1200 700" fill="none" xmlns="http://www.w3.org/2000/svg">
  <rect width="1200" height="700" rx="36" fill="#F8FAFD"/>
  <rect x="32" y="32" width="1136" height="636" rx="32" fill="url(#bg)"/>
  <circle cx="960" cy="160" r="120" fill="#D8B56A" fill-opacity="0.12"/>
  <circle cx="220" cy="540" r="180" fill="#17339B" fill-opacity="0.12"/>
  <rect x="146" y="120" width="340" height="400" rx="32" fill="#FFFFFF" fill-opacity="0.92"/>
  <rect x="196" y="190" width="240" height="28" rx="14" fill="#17339B"/>
  <rect x="196" y="244" width="190" height="18" rx="9" fill="#7B8ACF"/>
  <rect x="196" y="280" width="210" height="18" rx="9" fill="#7B8ACF"/>
  <rect x="196" y="316" width="170" height="18" rx="9" fill="#7B8ACF"/>
  <path d="M730 194C730 162 756 136 788 136H910C942 136 968 162 968 194V368C968 400 942 426 910 426H788C756 426 730 400 730 368V194Z" fill="#FFFFFF" fill-opacity="0.94"/>
  <path d="M770 204L850 168L930 204V300C930 352 895 396 850 410C805 396 770 352 770 300V204Z" fill="#0D1B6F"/>
  <path d="M820 254H880" stroke="#FFFFFF" stroke-width="18" stroke-linecap="round"/>
  <path d="M850 224V284" stroke="#FFFFFF" stroke-width="18" stroke-linecap="round"/>
  <text x="600" y="560" fill="#0D1B6F" font-size="56" font-family="Georgia, serif" font-weight="700">OSIYO XALQARO MAKTABI</text>
  <text x="600" y="614" fill="#17339B" font-size="28" font-family="Arial, sans-serif">Mission and values placeholder</text>
  <defs>
    <linearGradient id="bg" x1="72" y1="72" x2="1120" y2="628" gradientUnits="userSpaceOnUse">
      <stop stop-color="#0D1B6F"/>
      <stop offset="1" stop-color="#17339B"/>
    </linearGradient>
  </defs>
</svg>
